<?xml version="1.0" encoding="UTF-8"?><svg id="Layer_1" xmlns="http://www.w3.org/2000/svg" viewBox="0 0 40 24"><path d="M8.7,9.3c2.1-1,3.6-2.8,6-3s4.9-.1,6.9,0c3.1.2,4.3,2.9,6.8,3.6s5,.4,5.4,2.8,0,1.9,0,2.8c-.2.5-.6.6-1.1.7s-.6,0-.7,0-.1.4-.2.6c-.8,1.3-3.3,1.1-3.7-.5h-4.4c-.6,1.8-3.1,1.9-4.2.6-.6.9-2,1.1-2.8.3s-.4-.8-.6-.9h-3.8c-.3,0-.2.2-.3.4-.7,1.3-3,1.4-3.7.1s-.2-.6-.3-.7-.4-.1-.6-.2c-1.1-.5-1.4-1.4-1.1-2.6s.3-.6.4-.9c.1-.8-.2-1.7.4-2.4s1.1-.5,1.6-.7ZM20.5,9.7c1.5,0,3,0,4.4,0s.6,0,.9,0,.2,0,.1,0c-1.1-.8-2.9-2.4-4.3-2.4h-3.2c-.1,0,1.8,2.2,2,2.3ZM15.8,7.4l-.5,2.3h3.9c-.9-1.1-1.7-2.6-3.4-2.3ZM14.8,7.4c-.6-.2-1.2,0-1.8.3l-2.8,1.8h4.1s.6-2.2.6-2.2ZM7.7,12.4c0,.2-.6,1.1-.6,1.6s.4,1,.7.8.2-1,.2-1.2c.3-1,.9-1.5,1.9-1.5s2,1.9,1.9,3.1h7.2c0-1.5.8-3.3,2.6-3s1.5,1.2,1.7,2,0,.7.2,1.1h2.9c.3,0,.7-.5,1-.5h5.4c.1,0,0-.7,0-.8s-.3,0-.4,0c-.4,0-.6-.3-.7-.7h-3.6c-.3.2-.3.4-.7.6s-2,.3-2.5.2-.6-.4-.8-.7c-1.3-2.2.2-2.1,1.9-1.6s1.1.5,1.4.6c.9.1,3,.2,4,0s.8-.2.6-.5-1.1-.5-1.4-.6c-2.6-.7-5.3-.6-8-.6-4.8,0-9.7-.2-14.5-.1h-.4c0,.1,0,1.8,0,1.8ZM25.2,13.3c.1,0,.8,0,1,0s.5,0,.7-.2c-.6-.2-1.3-.5-2-.5,0,.2.1.6.4.7ZM32.8,13.2c.1-.5-.4-.2-.3,0s.3,0,.3,0ZM10.2,16.7c1-.4,1-3.7-.6-3.4s-1,2.6-.4,3.3.7.2.9.1ZM21.7,16.7c1-.5.9-3.1-.2-3.4-2.2-.5-1.8,4.2.2,3.4Z" fill="#001fd1"/></svg>