<?xml version="1.0" encoding="UTF-8"?><svg id="Layer_1" xmlns="http://www.w3.org/2000/svg" viewBox="0 0 40 24"><path d="M32.9,10.1c.7.7.3,1.6.4,2.4s.3.6.4.9c.3,1.2,0,2-1.1,2.6s-.5.1-.6.2-.2.5-.3.7c-.8,1.3-3.1,1.2-3.7-.1s0-.4-.3-.4h-3.8c-.2,0-.4.7-.6.9-.8.8-2.2.6-2.8-.3-1.1,1.3-3.6,1.2-4.2-.6h-4.4c-.4,1.6-2.9,1.8-3.7.5s-.2-.6-.2-.6c0,0-.5,0-.7,0-.5,0-.9-.2-1.1-.7,0-.9-.2-1.9,0-2.8.5-2.4,3.6-2.3,5.4-2.8s3.7-3.4,6.8-3.6,4.9-.1,6.9,0c2.4.1,3.9,2,6,3s1.2.4,1.6.7ZM21.5,7.3h-3.2c-1.4,0-3.2,1.6-4.3,2.4,0,.1,0,0,.1,0,.3,0,.6,0,.9,0,1.5,0,3,0,4.4,0,.1-.2,2.1-2.3,2-2.3ZM20.9,9.7h3.9l-.5-2.3c-1.7-.3-2.4,1.2-3.4,2.3ZM25.8,9.6h4.1l-2.8-1.8c-.6-.3-1.2-.5-1.8-.3l.6,2.2ZM32.3,10.7h-.4c-4.8-.2-9.7,0-14.5,0s-5.4-.1-8,.6-1.3.4-1.4.6c-.2.3.4.5.6.5.9,0,3,0,4,0s1-.5,1.4-.6c1.7-.5,3.2-.6,1.9,1.6s-.4.6-.8.7-2,0-2.5-.2-.4-.4-.7-.6h-3.6c-.1.3-.3.6-.7.7s-.4,0-.4,0c0,0-.1.8,0,.8h5.4c.3,0,.7.4,1,.5h2.9c0-.4,0-.7.2-1.1.2-.8.8-1.9,1.7-2,1.8-.3,2.6,1.5,2.6,3h7.2c0-1.2.5-3,1.9-3.1s1.6.5,1.9,1.5.2,1.1.2,1.2c.3.2.7-.5.7-.8,0-.5-.6-1.4-.6-1.6v-1.7ZM15.2,12.6c-.7,0-1.4.2-2,.5.2.1.5.1.7.2s.8.1,1,0c.3,0,.4-.5.4-.7ZM7.4,13.1c.1-.1-.4-.4-.3,0,0,0,.3,0,.3,0ZM30.7,16.5c.7-.7.7-3.1-.4-3.3s-1.6,3-.6,3.4.7,0,.9-.1ZM18.5,13.3c-1.1.2-1.2,2.9-.2,3.4,2,.9,2.4-3.8.2-3.4Z" fill="#001fd1"/></svg>