<?xml version="1.0" encoding="UTF-8"?><svg id="Layer_1" xmlns="http://www.w3.org/2000/svg" viewBox="0 0 40 24"><path d="M26.4,9.2c.2.1.3-.2.4-.3.4-.4,1.7-.3,1.8.4s-.1.8-.6,1-.6,0-.6.2c.1.3.3.5.5.9.4,1,.4,4.6.3,5.8s-.3,1.1-1.1,1.2-1.2,0-1.7-.4-.3-.6-.6-.6h-10.2c-.2.4-.3.7-.7.9-.7.2-2.1.2-2.2-.8-.2-1.8.1-3.9,0-5.7,0-.5.4-.9.7-1.3-.4-.1-1.1,0-1.2-.5-.3-1.1,1-1.3,1.8-1s.3.3.6.4c.4-1.3.9-3.1,2.5-3.3,2.4-.2,5.1.2,7.6,0,1.5,0,2,1.5,2.5,2.6s.2.7.2.7ZM25.6,9.7c-.4-.7-.5-1.6-1-2.3s-.3-.4-.5-.5h-8c-.7.2-.9.9-1.2,1.5s-.4.9-.5,1.3h11.2ZM13,16c.1.1.4.2.6.2h12.9c.3,0,.6-.3.6-.7,0-.5,0-3.3,0-3.8s-.6-1.1-1.2-1.2h-12c-.4.1-1.1.9-1.2,1.3,0,.6,0,2.9,0,3.5s.1.4.2.6Z" fill="#001fd1"/><path d="M16.3,15.1h7.1c.6,0,.9.9.3,1h-7.3c-.6,0-.6-.8,0-1Z" fill="#001fd1"/><path d="M24.8,11.8c.4,0,1.2,0,1.5.1.8.5.4,1.8-.3,2.1s-2.5.4-2.6-.7.5-1.4,1.4-1.5ZM26.1,13s0-.2,0-.2c0-.1-1.8-.1-1.9,0-.1.5.9.4,1.2.4s.6-.2.7-.2Z" fill="#001fd1"/><path d="M14,11.8c1.1-.2,2.9.2,2.4,1.7s-2.2.9-2.8.3-.5-1.8.4-2ZM15.7,13.2c0-.1-.2-.4-.2-.4h-1.4c-.1.2.2.4.4.4h1.2Z" fill="#001fd1"/><path d="M17.5,12.2h4.9c.6,0,.6,1,0,1-1.5.2-3.4-.1-4.9,0-.6,0-.5-.9,0-1Z" fill="#001fd1"/></svg>