<?xml version="1.0" encoding="UTF-8"?><svg id="Layer_1" xmlns="http://www.w3.org/2000/svg" viewBox="0 0 40 24"><path d="M12.3,16.3c-.2.3-.2.5-.4.7-.7.9-2.6.9-3.4,0s-.4-.8-.6-.9-.5-.2-.7-.3c-1.2-.6-1-2.6-.5-3.7s1.2-1.6,2.4-1.9,2.4-.4,3.1-.7c2.3-1.2,3.4-3.1,6.4-3.3,2.4-.1,5,.1,7.4,0,1.8.1,3.5,1.9,5,2.8s1.8.5,2,2.1,0,.6,0,1c0,.5.5.9.5,1.5.1,1.3-.5,1.9-1.8,1.9,0,0,0,.4,0,.6-.3,1.2-1.2,1.6-2.4,1.5s-1.5-1-1.5-1.8c-1.2,0-2.4.2-3.7.4s-.4,0-.7,0-.3.6-.4.8c-.5.7-2,.8-2.8.5s-.6-.5-.9-.8c-.8,1.3-2.4,1.1-3-.2s0-.2,0-.2c-.1-.1-3.4,0-3.9,0ZM25.7,7.2c-1,0-2.2,0-3.2.1l2.5,2.1h4.8c-1.1-.9-2.6-2.1-4.1-2.2ZM13.6,9.7c0,.1,0,0,.2,0,.5,0,1,0,1.5,0,1.2,0,2.4,0,3.7,0l.9-2.4c-.5,0-1.1,0-1.6,0-1.7.2-3.1,1.8-4.6,2.4ZM23.6,9.6c-.5-.5-1.2-1.1-1.8-1.5s-.8-.6-1-.5-.6,1.8-.8,2.1h3.5ZM27.2,10.9c.4.4.2.9.3,1.1s2.6,0,3,0c0-.6,0-1.4.8-1.5,0,0-.2-.1-.2-.1h-5s1.1.5,1.1.5ZM7.8,15s.1-1,.2-1.2c.2-.5.6-1.2,1.1-1.4,1.8-.7,2.7,1.5,2.6,2.9h7.2c0-1.5.7-3.4,2.5-3s1.4,1.3,1.6,2.1-.2,1,.8.9,2-.6,3.1-.7c1.7-.1,3.6,0,5.3,0,.6-.1.5-1.4,0-1.5h-8.3c-.7-.2-1.2-1.7-.5-2.2l.7-.3h-1.8c-3.6.4-7.8-.1-11.4.4s-2.5.4-3,1.4-.6,2.3-.2,2.6.2,0,.2,0ZM32.1,12.1c0,0,0-.9,0-1-.4,0-.7.8-.6,1s.6,0,.6,0ZM26.6,12.1c0-.6-.3-.8-.9-.8s-2.2-.2-1.7.8h2.6ZM21.3,16.7c1-.3,1-3.3-.3-3.4s-1.5,4,.3,3.4ZM9.3,16.6c1.6,1,1.9-3.2.5-3.4s-1.3,2.9-.5,3.4Z" fill="#001fd1"/></svg>