<?xml version="1.0" encoding="UTF-8"?><svg id="Layer_1" xmlns="http://www.w3.org/2000/svg" viewBox="0 0 40 24"><path d="M23.8,16.3s0,.2,0,.2c-.6,1.3-2.3,1.5-3,.2-.3.3-.5.6-.9.8-.8.3-2.3.2-2.8-.5s-.3-.7-.4-.8-.4,0-.7,0c-1.2-.2-2.4-.5-3.7-.4,0,.8-.7,1.7-1.5,1.8-1.1.2-2.1-.3-2.4-1.5s0-.5,0-.6c-1.3,0-2-.6-1.8-1.9s.5-1,.5-1.5,0-.6,0-1c.2-1.5.9-1.4,2-2.1,1.5-.9,3.2-2.6,5-2.8,2.4.1,5-.1,7.4,0s4.1,2.1,6.4,3.3,2.3.4,3.1.7,1.9.8,2.4,1.9.6,3-.5,3.7-.6.2-.7.3-.3.7-.6.9c-.8.8-2.7.8-3.4,0s-.2-.5-.4-.7c-.5,0-3.8-.1-3.9,0ZM10.3,9.5h4.8l2.5-2.1c-1,0-2.2-.2-3.2-.1-1.4.1-2.9,1.4-4.1,2.2ZM21.8,7.3c-.5,0-1.1,0-1.6,0l.9,2.4c1.2,0,2.4,0,3.7,0s1,.1,1.5,0,.2,0,.2,0c-1.5-.7-2.9-2.3-4.6-2.4ZM19.9,9.6c-.2-.3-.6-2-.8-2.1s-.8.4-1,.5c-.6.4-1.2,1-1.8,1.5h3.5ZM13.9,10.4h-5s-.2,0-.2.1c.8,0,.8.9.8,1.5.4,0,2.9,0,3,0,.2-.2,0-.8.3-1.1l1.1-.5ZM32.4,14.9c.4-.2,0-2.2-.2-2.6-.5-1-1.9-1.3-3-1.4-3.6-.6-7.7,0-11.4-.3h-1.8c0-.1.7.1.7.1.7.5.2,2-.5,2.2H7.9c-.6.1-.6,1.5,0,1.6,1.7,0,3.6-.1,5.3,0s1.9.6,3.1.7.6-.1.8-.9.7-1.9,1.6-2.1c1.8-.4,2.6,1.6,2.5,3h7.2c0-1.4.8-3.6,2.6-2.9s1,.9,1.1,1.4.2,1.2.2,1.2.2,0,.2,0ZM8.5,12.1c.2-.2-.2-1-.6-1,0,0-.1.9,0,1s.6,0,.6,0ZM16,12.1c.5-1-1.1-.9-1.7-.8s-.9.2-.9.8h2.6ZM18.9,13.2c-1.3,0-1.2,3.1-.3,3.4,1.8.6,2-3.5.3-3.4ZM30.1,13.2c-1.4.2-1.1,4.4.5,3.4s.9-3.6-.5-3.4Z" fill="#001fd1"/></svg>