<?xml version="1.0" encoding="UTF-8"?><svg id="Layer_1" xmlns="http://www.w3.org/2000/svg" viewBox="0 0 40 24"><path d="M17.3,6h11.7c1.1,0,2.2.7,2.6,1.7.7,1.7.6,6.2.2,8s-1.4,2.3-2.9,2.3h-11.6c.2.8,0,1.1-.9,1s-1-1-1.1-1c-1.9-.2-4.9.6-6.3-1-1.3-1.6-1.3-6-.8-8,.8-3.8,4.3-2.8,7.3-2.9.3-.3.5-.8,1-.9.9-.1,1,0,.8.9ZM26.8,6.9h-10.4c.8.3,1.6.8,2.4.8,1.5.1,4.4.1,5.9,0s1.3-.4,2-.7.2,0,.2-.1ZM28.6,16.9c.8,0,1.5,0,1.9-.8.8-1.4.7-5.9.3-7.5s-1-1.8-2.3-1.6c.3.3.5.8.6,1.2.5,1.7.6,6.5-.3,8.1s-.3.3-.3.6ZM11.5,7c-1.1,0-2.2.8-2.2,1.9,1-.3,2-.8,2.2-1.9ZM14.2,7h-1.6c-.5,1.1-1.2,1.9-2.3,2.5s-1.1.4-1.2.5c-.3.3-.2,3.4,0,3.9,1.6.4,2.9,1.4,3.5,2.9h1.6c-.1-.4-.2-.8-.3-1.2-.3-2-.3-5,0-7s.3-1.1.3-1.7ZM18,8.5l-2.9-.9c-.5,2.9-.5,5.8,0,8.7l2.9-1c0-.5-.2-.9-.2-1.4-.1-1.7,0-3.7.2-5.4ZM25.9,8.5c0,.3.2.7.2,1,.2,2,0,3.5,0,5.4s0,.6.6.9c.8.4,1.2.8,1.6-.3.5-1.5.5-6-.1-7.5s-.1-.4-.2-.4c-.2,0-1.7.8-2,.8ZM25,15.1c.4-2.1.4-4.3,0-6.4-.7,0-5.6-.2-5.9,0s-.2,1.2-.2,1.4c0,1.1,0,2.5,0,3.6s.1,1.4.2,1.4h6ZM11.6,16.9c-.3-1-1.4-1.7-2.4-1.9.2.9.7,1.6,1.7,1.8s.5,0,.7.1ZM16.4,16.9h10c0,0,.2,0,.1-.2-.4-.3-1-.6-1.4-.7-2.7.1-5.5-.4-8.1.5l-.6.3Z" fill="#001fd1"/></svg>